<svg id="Layer_1" data-name="Layer 1" xmlns="http://www.w3.org/2000/svg" viewBox="0 0 183.3 32.5"><defs><style>.cls-1{fill:#fe3a3c;}</style></defs><title>brainrider-logo-red</title><g id="Layer_2" data-name="Layer 2"><g id="Artwork"><path class="cls-1" d="M20.49,22.37a8.87,8.87,0,0,1-.83,3.89,9.46,9.46,0,0,1-2.24,3.07,10.54,10.54,0,0,1-7.17,2.75,10.44,10.44,0,0,1-3.9-.74,11,11,0,0,1-3.28-2.06A10,10,0,0,1,.82,26.17,9.15,9.15,0,0,1,0,22.29V0H12.9a8.11,8.11,0,0,1,2.88.52A7.52,7.52,0,0,1,18.2,2a7.3,7.3,0,0,1,1.67,2.24,6.66,6.66,0,0,1,.62,2.87A5.83,5.83,0,0,1,20,9.74a9.55,9.55,0,0,1-1.16,1.81c-.43.51-.82,1-1.17,1.4a2.23,2.23,0,0,0-.52,1.45,2,2,0,0,0,.52,1.14c.35.44.74,1,1.17,1.58A12,12,0,0,1,20,19.33a8,8,0,0,1,.52,3M15,22.2a3.53,3.53,0,0,0-.53-2c-.35-.52-.74-1-1.14-1.56a11.27,11.27,0,0,1-1.15-1.75,5.13,5.13,0,0,1-.53-2.52,5.76,5.76,0,0,1,.53-2.65,10.06,10.06,0,0,1,1.15-1.83c.4-.52.79-1,1.14-1.37A1.94,1.94,0,0,0,15,7.21a1.73,1.73,0,0,0-.63-1.37,2.17,2.17,0,0,0-1.46-.56H5.4V22.2A4.36,4.36,0,0,0,5.79,24a4.66,4.66,0,0,0,1,1.46,5.14,5.14,0,0,0,1.54,1,5,5,0,0,0,3.66,0,5.14,5.14,0,0,0,1.54-1,4.63,4.63,0,0,0,1-1.46A4.36,4.36,0,0,0,15,22.2" transform="translate(0 0)"/><path class="cls-1" d="M33.26,8.55A12.1,12.1,0,0,0,29.78,9a8.62,8.62,0,0,0-2.57,1.2,6,6,0,0,0-1.7,1.8,5.5,5.5,0,0,0-.75,1.89,1,1,0,0,0-.08.43V32h4.77V15a.8.8,0,0,1,.24-.54,3.07,3.07,0,0,1,.88-.66,5.22,5.22,0,0,1,1.26-.47,6.09,6.09,0,0,1,3.23.12,4.18,4.18,0,0,1,1.41.75l.59.5,3-3.91-.59-.44A10.09,10.09,0,0,0,33.3,8.58" transform="translate(0 0)"/><path class="cls-1" d="M58.18,11.18A9,9,0,0,0,55,9.29a11.76,11.76,0,0,0-8.74.32,9.07,9.07,0,0,0-1.89,1.15A5.64,5.64,0,0,0,43,12.33l-.36.64,4.41,2.4.33-.7a2.47,2.47,0,0,1,1.25-1A6.19,6.19,0,0,1,53,13.5a3.17,3.17,0,0,1,1.39.83,1,1,0,0,1,.35.67v2H51.08a13.76,13.76,0,0,0-4.09.56,7.1,7.1,0,0,0-3,1.79,4.44,4.44,0,0,0-1.43,3.22V26.8a4.16,4.16,0,0,0,1.36,2.93,8.2,8.2,0,0,0,3.14,2,11.72,11.72,0,0,0,4,.69A11.48,11.48,0,0,0,54.19,32a10.92,10.92,0,0,0,2.64-1.11,6.71,6.71,0,0,0,1.92-1.62,3.28,3.28,0,0,0,.82-2.06V14.55a4.39,4.39,0,0,0-.38-1.89,5.42,5.42,0,0,0-1-1.48m-8.7,10.59a11.24,11.24,0,0,1,1.41-.09h3.89V26a.92.92,0,0,1-.35.65,3.52,3.52,0,0,1-1.4.81,6,6,0,0,1-3.93,0,4,4,0,0,1-1.43-.81,1,1,0,0,1-.35-.65V23.33a1,1,0,0,1,.23-.74,1.77,1.77,0,0,1,.74-.52,4.42,4.42,0,0,1,1.19-.3" transform="translate(0 0)"/><rect class="cls-1" x="63.77" y="8.82" width="4.77" height="23.18"/><rect class="cls-1" x="63.77" width="4.77" height="5.05"/><path class="cls-1" d="M86,8.72,85,8.4A7.91,7.91,0,0,0,83.19,8a28.42,28.42,0,0,0-4.1,0,15.49,15.49,0,0,0-1.7.17l-1.29.24c-.38.08-.77.17-1.28.31h-.16a3.29,3.29,0,0,0-.55.16,2.46,2.46,0,0,1-.45.11l-.61.11V32h4.77V12.76a8.37,8.37,0,0,1,1-.17,12.6,12.6,0,0,1,4.55.21,3.73,3.73,0,0,1,1.57.82,1,1,0,0,1,.35.65V32H90.1l.05-18.52A4.31,4.31,0,0,0,89,10.7a6.76,6.76,0,0,0-3-2" transform="translate(0 0)"/><path class="cls-1" d="M103.05,8.55A12.19,12.19,0,0,0,99.57,9,8.62,8.62,0,0,0,97,10.2,5.84,5.84,0,0,0,95.31,12a5.33,5.33,0,0,0-.76,1.89,1.18,1.18,0,0,0-.08.43V32h4.78V15a.78.78,0,0,1,.23-.54,3.27,3.27,0,0,1,.88-.66,5.15,5.15,0,0,1,1.27-.47,6.06,6.06,0,0,1,3.22.12,4.09,4.09,0,0,1,1.41.75l.59.51,3-3.92-.59-.44a10.15,10.15,0,0,0-6.18-1.77" transform="translate(0 0)"/><rect class="cls-1" x="113.74" width="4.77" height="5.05"/><rect class="cls-1" x="113.74" y="8.82" width="4.77" height="23.18"/><path class="cls-1" d="M136.08,8.82h-3.94a10.14,10.14,0,0,0-5.69,1.5,6.62,6.62,0,0,0-2.91,4.32c-.06.32-.13.71-.19,1.22s-.12.94-.17,1.4-.09.88-.12,1.27a7.24,7.24,0,0,0,0,.83V22a22.06,22.06,0,0,0,.17,2.69,14.65,14.65,0,0,0,.36,1.91,6.47,6.47,0,0,0,.65,1.82,6.33,6.33,0,0,0,1.49,1.9,8,8,0,0,0,2.57,1.48,11.51,11.51,0,0,0,3.89.58,12.31,12.31,0,0,0,3.72-.5,8,8,0,0,0,2.56-1.35A5.79,5.79,0,0,0,140,28.65a10.27,10.27,0,0,0,.75-1.94,3.06,3.06,0,0,0,.12-.81V0H136Zm0,16.88a3.84,3.84,0,0,1-.26.7,1.94,1.94,0,0,1-.55.66,3.13,3.13,0,0,1-1.13.54,7.25,7.25,0,0,1-2,.23,7.07,7.07,0,0,1-2-.22,3.24,3.24,0,0,1-1.07-.54,2,2,0,0,1-.53-.67,3.37,3.37,0,0,1-.29-.8,8.18,8.18,0,0,1-.28-1.41c0-.46-.08-1.18-.11-2.12V18.61l.1-1.13a7.31,7.31,0,0,1,.11-1.08,6.24,6.24,0,0,1,.15-.81,2.31,2.31,0,0,1,1.2-1.59,5.22,5.22,0,0,1,2.72-.62h3.94Z" transform="translate(0 0)"/><path class="cls-1" d="M182.68,10.33a10.08,10.08,0,0,0-6.18-1.78A12.07,12.07,0,0,0,173,9a8.68,8.68,0,0,0-2.58,1.2,6.09,6.09,0,0,0-1.66,1.8,5.52,5.52,0,0,0-.76,1.89,1.18,1.18,0,0,0-.07.43V32h4.77V15a.78.78,0,0,1,.23-.54,3.22,3.22,0,0,1,.88-.66,5.3,5.3,0,0,1,1.27-.47,6.06,6.06,0,0,1,3.22.12,4.09,4.09,0,0,1,1.41.75l.59.51,3-3.92Z" transform="translate(0 0)"/><path class="cls-1" d="M158.47,25.07l-.06.32a1.51,1.51,0,0,0-.06.34c-.25,1-1,2.24-3.95,2.24s-3.62-1.31-3.86-2.28c-.07-.28-.12-.53-.17-.72a4.81,4.81,0,0,1-.11-.52,4,4,0,0,0-.08-.69,9.51,9.51,0,0,1,0-1v-.39h13.54l-.05-.77V18.85a5.78,5.78,0,0,0-.05-.79c-.05-.39-.06-.75-.09-1.18s-.08-.94-.14-1.4-.13-.89-.2-1.22a6.61,6.61,0,0,0-2.95-4.32,10.46,10.46,0,0,0-5.75-1.49,10.2,10.2,0,0,0-5.7,1.5,6.59,6.59,0,0,0-2.9,4.32c-.07.32-.13.72-.2,1.18s-.12.92-.17,1.38-.08.88-.11,1.26a6.52,6.52,0,0,0,0,.79l-.05,3.42a12.77,12.77,0,0,0,.05,1.48c.05.39.07.78.12,1.11a8.23,8.23,0,0,0,.21,1c.07.27.14.54.2.83a7.22,7.22,0,0,0,.64,1.79,6,6,0,0,0,1.5,1.93,7.82,7.82,0,0,0,2.57,1.47,11.21,11.21,0,0,0,3.89.59,11.48,11.48,0,0,0,3.92-.59,7.72,7.72,0,0,0,2.59-1.47,6,6,0,0,0,1.5-1.93,8.81,8.81,0,0,0,.69-1.79c0-.16.08-.38.12-.67a5.92,5.92,0,0,1,.16-.74l.05-.21Zm-8.2-8.22a9.15,9.15,0,0,1,.26-1.57,2.8,2.8,0,0,1,1.24-1.7,4.92,4.92,0,0,1,2.68-.63,4.76,4.76,0,0,1,2.63.65,3.17,3.17,0,0,1,1.29,1.69,6,6,0,0,1,.23,1.48v.88h-8.4Z" transform="translate(0 0)"/></g></g></svg>