<svg xmlns="http://www.w3.org/2000/svg" viewBox="0 0 139.23 36.38"><defs><style>.cls-1{fill:#fff;}</style></defs><title>brainrider-resource-center-plugin-logo-white</title><g id="Layer_2" data-name="Layer 2"><g id="Layer_1-2" data-name="Layer 1"><path class="cls-1" d="M18.84,17.12c-.43-.58-.82-1.14-1.17-1.58a2,2,0,0,1-.52-1.14A2.23,2.23,0,0,1,17.67,13c.35-.4.74-.89,1.17-1.4A9.55,9.55,0,0,0,20,9.74a5.83,5.83,0,0,0,.49-2.63,6.66,6.66,0,0,0-.62-2.87A7.3,7.3,0,0,0,18.2,2,7.52,7.52,0,0,0,15.78.52,8.11,8.11,0,0,0,12.9,0H0V22.29a9.15,9.15,0,0,0,.82,3.88,10,10,0,0,0,2.25,3.11,11,11,0,0,0,3.28,2.06,10.44,10.44,0,0,0,3.9.74,10.54,10.54,0,0,0,7.17-2.75,9.46,9.46,0,0,0,2.24-3.07,8.87,8.87,0,0,0,.83-3.89l0,0a8,8,0,0,0-.52-3A12,12,0,0,0,18.84,17.12Zm-6.66-.23a11.27,11.27,0,0,0,1.15,1.75c.4.56.79,1,1.14,1.56a3.53,3.53,0,0,1,.53,2,4.36,4.36,0,0,1-.47,1.8,4.63,4.63,0,0,1-1,1.46,5.14,5.14,0,0,1-1.54,1,5,5,0,0,1-3.66,0,5.14,5.14,0,0,1-1.54-1,4.66,4.66,0,0,1-1-1.46,4.36,4.36,0,0,1-.39-1.8V5.28h7.51a2.17,2.17,0,0,1,1.46.56A1.73,1.73,0,0,1,15,7.21a1.94,1.94,0,0,1-.53,1.31c-.35.37-.74.85-1.14,1.37a10.06,10.06,0,0,0-1.15,1.83,5.76,5.76,0,0,0-.53,2.65A5.13,5.13,0,0,0,12.18,16.89Z"/><path class="cls-1" d="M31.05,8.36h1.64c1.58.06,2.3.76,2.7,2.62a17.47,17.47,0,0,0,.9,3.22h1.8a21.43,21.43,0,0,1-1-3.7,3.36,3.36,0,0,0-2-2.72V7.72a3.54,3.54,0,0,0,2.54-3.44,3.36,3.36,0,0,0-1.06-2.56,5.51,5.51,0,0,0-3.9-1.1A18.11,18.11,0,0,0,29.31.9V14.2h1.74Zm0-6.24A7.15,7.15,0,0,1,32.77,2c1.84,0,3.1.78,3.1,2.52C35.88,6,34.7,7,32.83,7H31.05Z"/><path class="cls-1" d="M44.15,14.4a7.85,7.85,0,0,0,3.22-.6l-.3-1.26a6.37,6.37,0,0,1-2.68.5,3.1,3.1,0,0,1-3.32-3.36h6.8a6.66,6.66,0,0,0,.06-.82c0-1.78-.84-4.56-4-4.56-2.82,0-4.54,2.3-4.54,5.22S41.17,14.4,44.15,14.4Zm-.36-8.84c2,0,2.46,1.74,2.44,2.86H41.09C41.23,7.2,42,5.56,43.79,5.56Z"/><path class="cls-1" d="M52.19,13.1a4.62,4.62,0,0,1-2.32-.7l-.44,1.34a5.52,5.52,0,0,0,2.72.66c2.3,0,3.62-1.2,3.62-2.9,0-1.44-.86-2.28-2.54-2.92C52,8.1,51.39,7.74,51.39,6.94S52,5.62,53,5.62a3.77,3.77,0,0,1,2,.56l.44-1.28a4.83,4.83,0,0,0-2.38-.6c-2.08,0-3.34,1.28-3.34,2.84,0,1.16.82,2.12,2.56,2.74,1.3.48,1.8.94,1.8,1.78S53.47,13.1,52.19,13.1Z"/><path class="cls-1" d="M62.13,4.3c-2.68,0-4.8,1.9-4.8,5.14,0,3.06,2,5,4.64,5,2.34,0,4.82-1.56,4.82-5.14C66.8,6.32,64.92,4.3,62.13,4.3Zm-.08,8.8c-1.72,0-2.94-1.6-2.94-3.72,0-1.84.9-3.76,3-3.76S65,7.7,65,9.34C65,11.52,63.74,13.1,62.05,13.1Z"/><path class="cls-1" d="M77.12,4.52H75.36v5.94a2.57,2.57,0,0,1-.16.9A2.54,2.54,0,0,1,72.87,13c-1.6,0-2.16-1.24-2.16-3.08V4.52H69v5.66c0,3.4,1.82,4.24,3.34,4.24a3.64,3.64,0,0,0,3.2-1.8h0l.1,1.58H77.2c-.06-.76-.08-1.64-.08-2.64Z"/><path class="cls-1" d="M81.63,6.42h-.08l-.06-1.9H80c.06.9.08,1.88.08,3V14.2h1.74V9a5,5,0,0,1,.08-.82A2.47,2.47,0,0,1,84.21,6a2.64,2.64,0,0,1,.6.06V4.36a1.9,1.9,0,0,0-.5-.06A2.91,2.91,0,0,0,81.63,6.42Z"/><path class="cls-1" d="M93.27,13.84,93,12.52a5,5,0,0,1-2.16.48,3.32,3.32,0,0,1-3.36-3.62,3.35,3.35,0,0,1,3.42-3.66,4.08,4.08,0,0,1,2,.46l.4-1.36a5.88,5.88,0,0,0-2.44-.5,4.92,4.92,0,0,0-5.2,5.14,4.6,4.6,0,0,0,4.82,4.94A6.48,6.48,0,0,0,93.27,13.84Z"/><path class="cls-1" d="M99.06,4.3c-2.82,0-4.54,2.3-4.54,5.22s1.78,4.88,4.76,4.88a7.85,7.85,0,0,0,3.22-.6l-.3-1.26a6.37,6.37,0,0,1-2.68.5,3.1,3.1,0,0,1-3.32-3.36H103a6.52,6.52,0,0,0,.06-.82C103.06,7.08,102.22,4.3,99.06,4.3ZM96.21,8.42c.14-1.22.92-2.86,2.7-2.86,2,0,2.46,1.74,2.44,2.86Z"/><path class="cls-1" d="M35.62,20a6.34,6.34,0,0,1,2.72.56l.42-1.42a7.22,7.22,0,0,0-3.2-.6,6.71,6.71,0,0,0-7,7.08c0,4.42,2.86,6.82,6.66,6.82a8.63,8.63,0,0,0,3.56-.64l-.36-1.38a7,7,0,0,1-2.84.56c-3.28,0-5.18-2.12-5.18-5.42C30.35,22,32.46,20,35.62,20Z"/><path class="cls-1" d="M44.48,22.3c-2.82,0-4.54,2.3-4.54,5.22s1.78,4.88,4.76,4.88a7.84,7.84,0,0,0,3.22-.6l-.3-1.26a6.36,6.36,0,0,1-2.68.5,3.1,3.1,0,0,1-3.32-3.36h6.8a6.68,6.68,0,0,0,.06-.82C48.48,25.08,47.64,22.3,44.48,22.3Zm-2.84,4.12c.14-1.22.92-2.86,2.7-2.86,2,0,2.46,1.74,2.44,2.86Z"/><path class="cls-1" d="M55.48,22.3a3.56,3.56,0,0,0-3.2,1.82h0l-.1-1.6H50.57c.06.8.08,1.62.08,2.62V32.2h1.76V26.38a2.53,2.53,0,0,1,.12-.82,2.5,2.5,0,0,1,2.36-1.8c1.66,0,2.24,1.3,2.24,2.86V32.2H58.9V26.42C58.9,23.1,56.82,22.3,55.48,22.3Z"/><path class="cls-1" d="M63.79,19.74l-1.72.46v2.32h-1.5v1.34h1.5v5.28a3.59,3.59,0,0,0,.68,2.52,2.44,2.44,0,0,0,1.9.74,4.32,4.32,0,0,0,1.56-.24l-.08-1.32a3.89,3.89,0,0,1-1,.12c-1,0-1.32-.68-1.32-1.88V23.86h2.52V22.52H63.79Z"/><path class="cls-1" d="M72,22.3c-2.82,0-4.54,2.3-4.54,5.22s1.78,4.88,4.76,4.88a7.84,7.84,0,0,0,3.22-.6l-.3-1.26a6.36,6.36,0,0,1-2.68.5,3.1,3.1,0,0,1-3.32-3.36H76a6.68,6.68,0,0,0,.06-.82C76,25.08,75.18,22.3,72,22.3Zm-2.84,4.12c.14-1.22.92-2.86,2.7-2.86,2,0,2.46,1.74,2.44,2.86Z"/><path class="cls-1" d="M79.79,24.42h-.08l-.06-1.9H78.11c.06.9.08,1.88.08,3V32.2h1.74V27a5,5,0,0,1,.08-.82A2.47,2.47,0,0,1,82.37,24,2.64,2.64,0,0,1,83,24V22.36a1.9,1.9,0,0,0-.5-.06A2.91,2.91,0,0,0,79.79,24.42Z"/><path class="cls-1" d="M92.37,18.62a20.21,20.21,0,0,0-3.34.26V32.2h1.74V26.8a6,6,0,0,0,1.4.12,5.59,5.59,0,0,0,4.12-1.48,4,4,0,0,0,1-2.88,3.63,3.63,0,0,0-1.18-2.82A5.54,5.54,0,0,0,92.37,18.62Zm-.16,6.9a5.86,5.86,0,0,1-1.44-.14V20.14A7.3,7.3,0,0,1,92.41,20c1.92,0,3.18.86,3.18,2.64S94.31,25.52,92.21,25.52Z"/><rect class="cls-1" x="99.51" y="18" width="1.76" height="14.2"/><path class="cls-1" d="M112.34,22.52h-1.76v5.94a2.58,2.58,0,0,1-.16.9,2.55,2.55,0,0,1-2.32,1.6c-1.6,0-2.16-1.24-2.16-3.08V22.52h-1.76v5.66c0,3.4,1.82,4.24,3.34,4.24a3.64,3.64,0,0,0,3.2-1.8h0l.1,1.58h1.56c-.06-.76-.08-1.64-.08-2.64Z"/><path class="cls-1" d="M122,24h0a3.22,3.22,0,0,0-3-1.68c-2.22,0-4.36,1.86-4.36,5.14,0,2.68,1.72,4.72,4.12,4.72a3.46,3.46,0,0,0,3.08-1.62h0v1.08c0,2.44-1.32,3.38-3.12,3.38a5.46,5.46,0,0,1-2.84-.76l-.44,1.34a6.26,6.26,0,0,0,3.22.8,5.13,5.13,0,0,0,3.52-1.16c.94-.84,1.38-2.2,1.38-4.42V25.18c0-1.18,0-2,.08-2.66h-1.54Zm-.2,4.1a3.08,3.08,0,0,1-.14.94,2.57,2.57,0,0,1-2.44,1.8c-1.9,0-2.86-1.58-2.86-3.48,0-2.24,1.2-3.66,2.88-3.66a2.54,2.54,0,0,1,2.46,1.86,2.51,2.51,0,0,1,.1.8Z"/><path class="cls-1" d="M127.19,18.7a1.07,1.07,0,0,0-1.1,1.1,1.09,1.09,0,1,0,1.1-1.1Z"/><rect class="cls-1" x="126.31" y="22.52" width="1.76" height="9.68"/><path class="cls-1" d="M135.81,22.3a3.56,3.56,0,0,0-3.2,1.82h0l-.1-1.6h-1.56c.06.8.08,1.62.08,2.62V32.2h1.76V26.38a2.53,2.53,0,0,1,.12-.82,2.5,2.5,0,0,1,2.36-1.8c1.66,0,2.24,1.3,2.24,2.86V32.2h1.76V26.42C139.23,23.1,137.15,22.3,135.81,22.3Z"/></g></g></svg>