<svg id="Layer_3" data-name="Layer 3" xmlns="http://www.w3.org/2000/svg" viewBox="0 0 196.87 28.96"><defs><style>.cls-1{fill:#fff;}</style></defs><title>leveragepoint-logo-white</title><rect class="cls-1" x="27.24" width="8.75" height="27.58"/><polygon class="cls-1" points="16.55 9.04 8.25 9.04 8.25 18.05 0 18.05 0 27.05 8.34 27.05 8.34 18.05 16.59 18.05 16.59 9.04 24.89 9.04 24.89 0.04 16.55 0.04 16.55 9.04"/><polygon class="cls-1" points="46.56 4.23 44.13 4.23 44.13 23.1 54.63 23.1 54.63 21.06 46.56 21.06 46.56 4.23"/><path class="cls-1" d="M60.68,9.24c-3.95,0-6.36,3.22-6.36,7.31s2.49,6.83,6.66,6.83a11,11,0,0,0,4.51-.84l-.42-1.76a8.9,8.9,0,0,1-3.75.7c-2.46,0-4.59-1.37-4.65-4.7h9.52a9.33,9.33,0,0,0,.08-1.15C66.28,13.14,65.1,9.24,60.68,9.24ZM56.7,15c.2-1.71,1.29-4,3.78-4,2.77,0,3.44,2.44,3.42,4Z" transform="translate(0 0)"/><path class="cls-1" d="M75.94,9.55,73.3,17.17c-.45,1.23-.84,2.35-1.15,3.47h-.08A35.1,35.1,0,0,0,71,17.17L68.32,9.55H65.69L70.84,23.1h2.35L78.51,9.55Z" transform="translate(0 0)"/><path class="cls-1" d="M84.25,9.24c-3.95,0-6.36,3.22-6.36,7.31s2.49,6.83,6.66,6.83a11,11,0,0,0,4.51-.84l-.42-1.76a8.9,8.9,0,0,1-3.75.7c-2.46,0-4.59-1.37-4.65-4.7h9.52a9.23,9.23,0,0,0,.08-1.15C89.85,13.14,88.67,9.24,84.25,9.24Zm-4,5.77c.2-1.71,1.29-4,3.78-4,2.77,0,3.44,2.44,3.42,4Z" transform="translate(0 0)"/><path class="cls-1" d="M97.63,9.33a2.66,2.66,0,0,0-.7-.08,4.07,4.07,0,0,0-3.75,3h-.11L93,9.55H90.83c.08,1.26.11,2.63.11,4.23V23.1h2.44V15.88a7,7,0,0,1,.11-1.15,3.46,3.46,0,0,1,3.3-3.16,3.72,3.72,0,0,1,.84.08Z" transform="translate(0 0)"/><path class="cls-1" d="M107.66,14.79c0-2.72-1-5.54-5.15-5.54a8.41,8.41,0,0,0-4.45,1.2l.56,1.62a6.75,6.75,0,0,1,3.53-1,2.79,2.79,0,0,1,3.08,3.14v.28c-5.24,0-8.15,1.76-8.15,5a3.86,3.86,0,0,0,4.14,3.89,5,5,0,0,0,4.14-2h.08l.2,1.71h2.24a19.08,19.08,0,0,1-.22-3.25Zm-2.38,3.75a2.57,2.57,0,0,1-.14.78,3.37,3.37,0,0,1-3.28,2.27,2.18,2.18,0,0,1-2.32-2.35c0-2.63,3.05-3.11,5.74-3.05Z" transform="translate(0 0)"/><path class="cls-1" d="M119.08,11.6H119a4.51,4.51,0,0,0-4.23-2.35c-3.11,0-6.1,2.6-6.1,7.2,0,3.75,2.41,6.61,5.77,6.61a4.84,4.84,0,0,0,4.31-2.27h.06v1.51c0,3.42-1.85,4.73-4.37,4.73a7.64,7.64,0,0,1-4-1.06l-.62,1.88A8.75,8.75,0,0,0,114.38,29a7.18,7.18,0,0,0,4.93-1.62c1.32-1.18,1.93-3.08,1.93-6.19V13.28c0-1.65.06-2.74.11-3.72h-2.16Zm-.28,5.74a4.27,4.27,0,0,1-.2,1.32,3.6,3.6,0,0,1-3.42,2.52c-2.66,0-4-2.21-4-4.87,0-3.14,1.68-5.12,4-5.12a3.6,3.6,0,0,1,3.58,3.72Z" transform="translate(0 0)"/><path class="cls-1" d="M128.74,9.24c-3.95,0-6.36,3.22-6.36,7.31s2.49,6.83,6.66,6.83a11,11,0,0,0,4.51-.84l-.42-1.76a8.91,8.91,0,0,1-3.75.7c-2.46,0-4.59-1.37-4.65-4.7h9.52a9.23,9.23,0,0,0,.08-1.15C134.34,13.14,133.17,9.24,128.74,9.24Zm-4,5.77c.2-1.71,1.29-4,3.78-4,2.77,0,3.44,2.44,3.42,4Z" transform="translate(0 0)"/><path class="cls-1" d="M148.45,5.85c-1.2-1-3.05-1.54-5.57-1.54a29.91,29.91,0,0,0-5.26.39V23.33H141V16.21a9.72,9.72,0,0,0,1.68.11,8.33,8.33,0,0,0,6-2A5.72,5.72,0,0,0,150.3,10,5.33,5.33,0,0,0,148.45,5.85Zm-5.74,7.78A6.94,6.94,0,0,1,141,13.5V7.11a9.52,9.52,0,0,1,2-.17c2.38,0,3.84,1.12,3.84,3.22S145.29,13.64,142.71,13.64Z" transform="translate(0 0)"/><path class="cls-1" d="M158.7,9.38c-4.12,0-7.06,2.74-7.06,7.22s3,7,6.83,7c3.47,0,7-2.24,7-7.25C165.48,12.24,162.76,9.38,158.7,9.38Zm-.11,11.76c-2.1,0-3.39-2-3.39-4.62,0-2.27,1-4.62,3.42-4.62s3.3,2.44,3.3,4.56C161.92,19.21,160.55,21.14,158.59,21.14Z" transform="translate(0 0)"/><path class="cls-1" d="M169.43,4a1.84,1.84,0,0,0-1.93,1.88,1.93,1.93,0,0,0,3.86,0A1.84,1.84,0,0,0,169.43,4Z" transform="translate(0 0)"/><rect class="cls-1" x="167.69" y="9.69" width="3.47" height="13.64"/><path class="cls-1" d="M181.75,9.38a4.92,4.92,0,0,0-4.34,2.35h-.08l-.17-2h-3c.08,1.18.11,2.49.11,4.06v9.58h3.47v-8a3.5,3.5,0,0,1,.14-1.12,2.89,2.89,0,0,1,2.69-2c1.88,0,2.6,1.48,2.6,3.44v7.7h3.44V15.23C186.59,10.92,184.13,9.38,181.75,9.38Z" transform="translate(0 0)"/><path class="cls-1" d="M196.87,12.27V9.69h-3.28V5.8l-3.36.81V9.69h-2v2.58h2v6.41a5.44,5.44,0,0,0,1.06,3.81,4,4,0,0,0,3,1.12,7.59,7.59,0,0,0,2.49-.34l-.06-2.63a5,5,0,0,1-1.34.17c-1.32,0-1.76-.87-1.76-2.52v-6Z" transform="translate(0 0)"/></svg>