<svg id="svg5354" xmlns="http://www.w3.org/2000/svg" viewBox="0 0 246.5 47.71"><defs><style>.cls-1{fill:#fff;}</style></defs><title>versapay-logo-white</title><g id="layer1"><g id="g5567"><path id="path4694" class="cls-1" d="M190.86,34.81H185.1A10,10,0,0,1,175,25s0-1.11,0-1.24a10.42,10.42,0,0,1,7.87-9.19l10.7-2.6V9.65a2.37,2.37,0,0,0-2.37-2.37H177.55V.5h13.63A9.65,9.65,0,0,1,201,10.23V25a10,10,0,0,1-10.11,9.79m2.69-15.72-9,2.21a2.64,2.64,0,0,0-2.13,2.57c0,.12,0,1.14,0,1.14a2.94,2.94,0,0,0,2.69,3h5.76a2.91,2.91,0,0,0,2.69-3Z" transform="translate(-0.5 -0.5)"/><path id="path4706" class="cls-1" d="M152.3,48.21h-7.42V.5H161a9.72,9.72,0,0,1,9.86,9.79v11a13.52,13.52,0,0,1-13.51,13.51H152.3Zm0-20.18h5.06a6.09,6.09,0,0,0,6.09-6.09V9.72A2.44,2.44,0,0,0,161,7.28H152.3Z" transform="translate(-0.5 -0.5)"/><path id="path4710" class="cls-1" d="M219.37,48.21h-8.51V41.43h8.64a6.09,6.09,0,0,0,6.09-6.09V33.11a12.36,12.36,0,0,1-6.28,1.7h-2.43A9.72,9.72,0,0,1,207,25V.5h7.42V25.66A2.38,2.38,0,0,0,216.88,28h2.43a6.1,6.1,0,0,0,6.28-5.89V.5H233V34.9a13.49,13.49,0,0,1-13.63,13.31" transform="translate(-0.5 -0.5)"/><path id="path4714" class="cls-1" d="M237.64,29.21h3.84v1h-1.36v4.64H239V30.17h-1.36Zm8.32,0h1v5.6h-1.12V31.43l-1.2,2-1.2-2v3.38h-1.12v-5.6h1l1.28,2.24Z" transform="translate(-0.5 -0.5)"/></g><g id="g5561"><path id="path4678" class="cls-1" d="M21.46.5,14.88,21.77,8.3.5H.5l11,34.31h6.8L29.26.5Z" transform="translate(-0.5 -0.5)"/><path id="path4690" class="cls-1" d="M128.72,34.81H123A10,10,0,0,1,112.85,25s0-1.11,0-1.24a10.42,10.42,0,0,1,7.87-9.19l10.7-2.6V9.65A2.38,2.38,0,0,0,129,7.28H115.41V.5H129a9.65,9.65,0,0,1,9.79,9.73V25a10,10,0,0,1-10.11,9.79m2.69-15.72-9,2.21a2.64,2.64,0,0,0-2.13,2.57c0,.12,0,1.14,0,1.14A2.94,2.94,0,0,0,123,28h5.76a2.91,2.91,0,0,0,2.69-3Z" transform="translate(-0.5 -0.5)"/><path id="path4698" class="cls-1" d="M73.21.5a9.66,9.66,0,0,0-9.79,9.73V34.81h7.42V9.65a2.38,2.38,0,0,1,2.37-2.37h7.72V.5Z" transform="translate(-0.5 -0.5)"/><path id="path4702" class="cls-1" d="M99,34.81H83.76V28H99a2.94,2.94,0,0,0,2.69-3A2.92,2.92,0,0,0,99.33,22L91,19.86c-4.81-1.24-7.91-5-7.91-9.56A10,10,0,0,1,93.23.5h14V7.28h-14a2.94,2.94,0,0,0-2.69,3,2.93,2.93,0,0,0,2.1,2.92l8.57,2.24c4.73,1.22,7.9,5.06,7.9,9.56A10,10,0,0,1,99,34.81" transform="translate(-0.5 -0.5)"/><path id="path4726" class="cls-1" d="M57.37,11.53c0-.13,0-1.24,0-1.24A10,10,0,0,0,47.26.5H41.5a10,10,0,0,0-10.11,9.79v11A13.49,13.49,0,0,0,44.83,34.81H56.09V28H44.83a6.22,6.22,0,0,1-6-4.71l10.7-2.6a10.42,10.42,0,0,0,7.87-9.19M47.82,14l-9,2.21V10.29a2.91,2.91,0,0,1,2.69-3h5.76a2.94,2.94,0,0,1,2.69,3s0,1,0,1.14A2.64,2.64,0,0,1,47.82,14" transform="translate(-0.5 -0.5)"/></g></g></svg>